<?xml version="1.0" standalone="no"?>
<!DOCTYPE svg PUBLIC "-//W3C//DTD SVG 20010904//EN"
 "http://www.w3.org/TR/2001/REC-SVG-20010904/DTD/svg10.dtd">
<svg version="1.0" xmlns="http://www.w3.org/2000/svg"
 width="600.000000pt" height="600.000000pt" viewBox="0 0 600.000000 600.000000"
 preserveAspectRatio="xMidYMid meet">
<g transform="translate(0.000000,600.000000) scale(0.100000,-0.100000)"
fill="#000000" stroke="none">
<path d="M2708 4914 c-14 -16 -17 -49 -20 -224 -3 -187 -5 -209 -24 -245 -31
-56 -72 -90 -130 -104 -27 -7 -62 -18 -79 -26 -16 -7 -46 -18 -65 -25 -43 -16
-253 -119 -260 -128 -3 -4 -20 -15 -39 -26 -19 -10 -41 -25 -50 -33 -9 -8 -45
-37 -81 -64 -135 -104 -251 -231 -348 -379 -23 -36 -47 -72 -53 -80 -20 -30
-89 -174 -89 -186 0 -7 -4 -14 -8 -16 -18 -8 -88 -254 -114 -403 -14 -78 -14
-402 0 -480 34 -191 79 -334 154 -488 50 -102 152 -262 210 -331 97 -115 278
-279 348 -316 14 -7 27 -17 30 -21 18 -27 257 -141 385 -184 146 -49 360 -85
502 -85 l112 0 7 35 c7 37 -7 65 -32 65 -19 0 -145 51 -164 66 -189 156 -258
199 -360 225 -28 7 -49 17 -47 23 2 5 25 17 53 27 49 16 107 47 154 82 89 64
188 107 246 107 17 0 35 5 42 12 29 29 0 88 -50 103 -13 4 -30 14 -39 21 -25
22 -206 64 -276 64 -72 0 -247 -42 -269 -65 -9 -8 -20 -15 -25 -15 -29 0 -143
-96 -193 -162 l-28 -37 -41 22 c-72 36 -152 128 -184 210 -23 60 -28 87 -28
162 0 83 3 96 37 165 44 90 116 163 203 206 56 27 67 29 180 28 101 0 127 -3
165 -21 45 -22 44 -25 -10 -37 -50 -11 -85 -57 -113 -147 -15 -46 -43 -108
-63 -138 -31 -46 -35 -58 -27 -80 9 -25 11 -26 99 -25 68 1 101 7 136 23 26
11 52 21 58 21 12 0 65 26 84 41 97 76 124 100 149 131 17 21 28 40 25 43 -10
10 -48 14 -53 5 -3 -5 5 -7 17 -5 21 4 22 3 6 -9 -10 -7 -18 -17 -18 -21 0
-12 -92 -95 -123 -111 -15 -8 -31 -12 -36 -10 -5 3 -8 -2 -7 -11 1 -12 -13
-21 -49 -31 -27 -8 -58 -18 -67 -23 -32 -16 -98 -28 -98 -17 0 7 -4 7 -12 0
-10 -8 -79 -10 -97 -3 -2 0 3 9 10 18 11 14 11 15 1 9 -28 -17 13 44 44 66 19
13 22 18 9 14 -20 -6 -20 -6 -1 9 11 8 17 18 13 21 -4 4 -1 14 5 22 7 8 13 29
15 46 2 38 27 88 38 78 5 -4 5 -1 1 6 -9 15 17 43 44 45 11 1 20 5 20 9 0 4 9
8 19 8 26 0 35 29 15 51 -9 10 -13 23 -9 28 3 6 1 11 -4 11 -6 0 -11 -4 -11
-9 0 -5 -13 -4 -29 2 -17 6 -28 15 -25 19 3 4 1 8 -5 8 -5 0 -12 -4 -15 -9 -7
-11 -46 -2 -46 10 0 5 -10 9 -22 8 -22 0 -22 -1 -3 -10 17 -8 16 -9 -5 -3 -14
3 -31 5 -37 4 -7 0 -25 -2 -40 -3 -16 -1 -34 -6 -41 -11 -7 -4 -16 -6 -18 -3
-3 3 -22 -1 -41 -9 -19 -9 -37 -13 -40 -11 -2 3 -16 -6 -30 -19 -15 -14 -33
-22 -41 -19 -10 3 -12 0 -8 -10 3 -8 1 -15 -5 -15 -14 0 -87 -79 -95 -102 -3
-10 -10 -18 -15 -18 -5 0 -9 -7 -9 -16 0 -8 -4 -13 -9 -10 -5 4 -7 -2 -4 -13
3 -10 0 -22 -6 -25 -5 -4 -8 -13 -4 -21 3 -8 1 -15 -4 -15 -17 0 -31 -111 -22
-170 16 -98 17 -103 30 -111 7 -4 12 -21 12 -39 0 -17 3 -26 7 -20 4 6 15 -5
26 -25 10 -19 22 -35 25 -35 4 0 6 -8 5 -17 0 -10 15 -26 39 -40 22 -12 36
-23 31 -23 -5 0 -3 -7 4 -15 6 -8 9 -18 6 -23 -3 -5 1 -9 9 -9 13 0 13 4 0 24
-20 29 -1 30 19 1 9 -12 16 -20 16 -16 0 4 13 3 29 -2 23 -6 31 -5 35 7 4 8
13 13 21 10 9 -4 12 -1 9 7 -3 7 8 25 25 39 16 13 27 28 23 32 -4 5 1 5 10 2
10 -3 20 -1 24 5 5 7 2 8 -6 3 -9 -5 -11 -4 -6 3 4 7 14 12 22 12 8 0 14 4 14
10 0 5 11 15 24 22 14 7 25 17 25 22 0 6 13 11 28 13 22 3 25 1 13 -7 -19 -13
0 -13 20 0 11 7 12 10 2 10 -18 0 -9 25 9 25 8 0 21 5 29 10 17 11 42 15 88
15 19 1 32 6 32 14 0 18 65 19 177 2 94 -14 206 -53 197 -68 -3 -4 4 -8 15 -8
11 0 26 -7 34 -15 8 -8 18 -11 22 -7 4 4 3 -3 -3 -14 -6 -12 -9 -24 -6 -26 2
-3 -15 -8 -38 -11 -24 -2 -56 -10 -73 -17 -16 -7 -35 -12 -42 -11 -13 2 -75
-34 -74 -43 2 -17 0 -17 -14 -6 -9 7 -18 10 -22 6 -3 -3 0 -6 8 -6 8 0 2 -10
-15 -25 -16 -14 -38 -25 -48 -25 -10 0 -21 -7 -25 -16 -3 -8 -12 -13 -20 -10
-9 4 -11 2 -7 -6 5 -8 1 -9 -12 -4 -10 4 -15 4 -11 0 4 -4 -12 -14 -35 -22
-50 -17 -68 -29 -68 -48 0 -18 40 -43 73 -46 16 -1 27 -9 28 -18 0 -10 2 -11
6 -2 2 6 9 12 15 12 6 0 8 -7 5 -15 -4 -8 -1 -17 5 -21 7 -4 8 -3 4 4 -4 7 -1
12 8 12 8 0 18 -5 21 -10 4 -6 12 -7 18 -3 7 3 3 -4 -8 -17 l-20 -24 24 17
c21 14 26 14 38 1 8 -8 36 -28 61 -46 26 -18 61 -45 77 -60 17 -15 35 -28 42
-28 7 0 10 -9 8 -20 -2 -12 0 -18 6 -15 5 4 7 12 3 18 -3 7 1 4 9 -5 8 -10 17
-15 20 -11 4 3 7 1 7 -5 0 -10 38 -28 53 -24 4 1 7 -2 7 -7 0 -6 20 -13 45
-17 25 -3 42 -10 39 -15 -3 -5 3 -9 13 -9 14 0 15 -2 5 -9 -8 -4 -13 -12 -13
-17 1 -5 -55 -9 -124 -9 -97 0 -128 3 -134 14 -5 8 -15 12 -22 9 -12 -5 -39
-2 -164 16 -50 8 -129 37 -141 53 -13 17 -14 17 -8 -2 6 -16 5 -18 -7 -8 -7 7
-21 13 -30 13 -10 0 -25 7 -33 16 -9 8 -20 13 -25 9 -13 -7 -109 43 -138 73
-17 17 -23 19 -23 8 0 -11 -10 -9 -40 11 -22 15 -40 30 -40 34 0 5 -7 5 -17 2
-10 -4 -14 -2 -10 4 4 6 -11 18 -35 28 -33 13 -39 19 -27 27 11 8 11 9 -4 4
-11 -3 -20 0 -24 10 -3 9 -17 20 -30 25 -15 5 -21 14 -17 21 4 7 3 8 -4 4 -18
-11 -37 4 -21 16 11 8 11 9 -1 5 -22 -7 -54 19 -47 38 4 8 2 15 -3 15 -6 0
-10 -5 -10 -11 0 -6 -7 -4 -15 5 -8 8 -15 19 -15 24 0 5 -10 12 -21 15 -14 4
-20 11 -16 21 4 9 2 15 -2 13 -9 -2 -51 40 -83 84 -10 13 -18 19 -18 14 0 -11
-27 26 -28 38 0 5 -8 14 -18 21 -11 8 -14 18 -9 26 5 9 4 11 -3 6 -7 -4 -12 0
-12 10 0 10 -3 14 -7 11 -9 -9 -55 72 -47 84 3 5 -1 12 -10 15 -8 3 -19 19
-25 35 -5 16 -22 45 -37 64 -14 19 -24 41 -21 50 4 8 -2 20 -12 27 -19 15 -35
48 -22 48 5 0 -3 24 -18 53 -24 45 -55 171 -49 194 1 4 -6 22 -15 40 -9 18
-16 36 -15 40 1 4 -2 40 -6 78 -17 170 -17 180 -7 165 6 -8 11 -10 11 -4 0 5
-4 14 -9 20 -12 11 2 232 19 294 12 46 15 59 26 120 4 19 9 40 13 45 3 6 7 19
8 30 4 27 34 107 46 122 5 7 6 17 2 23 -3 5 -2 10 4 10 5 0 12 -6 15 -12 3 -7
3 -2 0 11 -5 18 -3 22 7 15 10 -6 10 -3 -1 11 -9 11 -10 16 -2 11 8 -4 13 -1
14 11 2 32 4 38 27 75 13 21 27 35 32 32 5 -3 6 3 2 12 -5 14 -3 16 13 10 15
-6 17 -5 7 5 -7 7 -13 17 -13 22 0 4 6 5 13 1 6 -4 9 -4 5 1 -11 12 31 87 44
79 7 -4 8 -3 4 4 -4 7 8 28 28 48 20 20 38 45 41 55 4 11 11 16 17 13 6 -4 8
-2 5 4 -4 5 10 29 31 51 39 42 52 49 52 30 0 -5 -5 -7 -12 -3 -7 4 -8 3 -4 -5
11 -17 28 -2 21 18 -8 25 35 73 55 61 19 -12 29 -4 23 19 -3 10 1 22 8 27 9 5
11 2 6 -9 -3 -10 -4 -17 -1 -17 3 0 10 13 15 30 6 16 15 27 20 24 5 -3 12 2
15 10 3 9 12 16 18 16 7 0 32 19 56 43 24 23 40 36 36 30 -5 -9 -2 -11 8 -7 9
3 14 10 11 14 -3 4 2 11 11 14 8 3 12 2 9 -4 -3 -6 -1 -10 4 -10 6 0 11 7 11
15 0 8 7 15 17 15 9 0 13 3 10 6 -4 4 10 15 29 26 28 15 39 16 50 7 12 -9 13
-9 9 3 -4 10 13 23 57 45 112 54 233 97 254 89 10 -4 12 -2 8 6 -5 7 0 9 14 6
15 -4 23 0 27 14 6 16 9 17 23 6 9 -7 13 -8 9 -2 -4 7 0 17 8 24 8 7 15 19 15
27 0 9 6 13 14 10 9 -4 12 0 9 13 -3 10 3 29 12 43 13 21 16 59 18 231 l2 207
25 -6 c16 -4 20 -3 12 3 -9 6 0 9 28 9 25 0 37 -3 29 -8 -8 -4 7 -7 34 -5 25
2 44 -1 41 -5 -4 -8 42 -14 69 -10 4 0 7 -3 7 -8 0 -5 10 -7 23 -4 18 4 19 3
7 -7 -12 -9 -8 -10 20 -5 26 5 31 4 20 -4 -12 -9 -10 -11 11 -11 35 0 91 -29
83 -42 -4 -6 -2 -8 4 -4 6 3 13 2 17 -4 4 -6 10 -8 14 -5 5 2 20 -6 34 -19 14
-13 28 -21 31 -18 3 3 6 1 6 -5 0 -5 11 -15 25 -21 14 -6 25 -18 25 -27 0 -8
6 -14 13 -13 6 2 11 -1 10 -7 0 -5 5 -16 13 -23 8 -7 14 -11 14 -8 0 2 11 -5
24 -17 20 -18 22 -25 14 -42 -10 -18 -10 -19 7 -5 17 14 18 13 13 -13 -4 -20
-2 -25 7 -17 12 10 34 -19 39 -53 1 -9 6 -20 11 -24 4 -4 5 -2 1 5 -14 23 2
12 19 -15 15 -22 15 -25 2 -20 -8 3 -18 0 -20 -7 -4 -10 1 -12 16 -8 20 5 20
4 8 -11 -7 -9 -18 -14 -24 -10 -6 4 -7 1 -2 -6 5 -9 10 -10 18 -2 6 6 14 11
18 11 7 0 23 -50 20 -63 -1 -5 3 -6 8 -3 5 4 11 -4 13 -16 2 -15 20 -31 55
-49 28 -15 54 -25 57 -22 3 3 13 -2 22 -11 9 -9 30 -20 46 -23 16 -3 32 -12
35 -19 3 -8 10 -11 16 -7 6 4 8 0 4 -10 -4 -11 -1 -17 9 -17 8 0 12 5 9 10 -9
15 0 12 39 -11 20 -12 36 -25 36 -30 0 -5 3 -8 8 -8 21 4 32 -2 26 -13 -5 -8
-2 -9 9 -5 10 3 17 2 17 -4 0 -5 8 -13 18 -17 38 -16 101 -65 95 -75 -3 -6 -1
-7 5 -3 7 4 12 3 12 -2 0 -5 11 -15 25 -22 14 -7 25 -19 25 -27 0 -7 3 -12 8
-12 23 4 34 -3 28 -17 -3 -8 -2 -12 4 -9 13 8 41 -20 38 -37 -2 -6 4 -12 12
-13 8 -1 14 -6 13 -13 -2 -6 4 -9 13 -5 8 3 14 1 12 -4 -2 -6 8 -19 22 -31 21
-17 22 -22 11 -35 -11 -14 -10 -16 9 -12 13 3 23 -2 27 -13 3 -9 17 -28 32
-41 14 -13 19 -20 11 -16 -8 3 -6 -2 6 -12 11 -10 18 -25 16 -32 -3 -8 0 -11
6 -7 11 6 38 -31 34 -46 -1 -5 3 -8 9 -8 6 0 8 -7 5 -16 -4 -10 -2 -13 6 -8 7
5 9 2 5 -9 -4 -12 -2 -14 10 -10 12 5 14 3 7 -8 -12 -20 -14 -40 -3 -33 5 3 6
11 2 17 -4 7 1 6 11 -2 13 -11 14 -16 4 -22 -9 -6 -10 -9 -1 -9 7 0 23 -23 36
-51 15 -30 20 -48 12 -45 -9 3 -11 -2 -7 -16 2 -11 8 -15 11 -10 4 6 11 4 19
-4 7 -8 10 -14 6 -14 -3 0 -1 -7 6 -15 7 -8 9 -23 6 -32 -4 -10 -4 -14 1 -10
6 7 24 -43 37 -101 1 -7 8 -18 14 -24 15 -15 16 -32 2 -23 -5 3 -10 -1 -10
-10 0 -9 4 -14 9 -11 5 3 11 -6 14 -19 2 -14 0 -28 -6 -32 -5 -3 -3 -9 6 -14
16 -9 44 -169 33 -188 -3 -5 -1 -22 4 -37 8 -20 8 -29 -1 -34 -8 -6 -8 -13 0
-29 11 -20 10 -71 -5 -167 -4 -27 -8 -58 -9 -69 -1 -11 -3 -24 -4 -30 -1 -5
-6 -3 -11 5 -8 11 -9 7 -4 -14 5 -21 4 -27 -5 -22 -6 4 -10 4 -9 -1 6 -21 -13
-93 -24 -90 -7 1 -12 -5 -13 -13 0 -17 -33 -80 -41 -80 -3 0 -3 4 0 8 2 4 0
14 -5 22 -7 11 -8 8 -5 -12 3 -17 -3 -36 -15 -53 -11 -14 -17 -25 -13 -25 4 0
-13 -20 -38 -45 -25 -24 -43 -47 -39 -51 3 -4 -2 -4 -12 -1 -10 4 -16 3 -12
-2 3 -5 1 -12 -5 -16 -5 -3 -10 -1 -10 5 0 6 -4 9 -10 5 -5 -3 -6 -13 -3 -23
3 -9 3 -14 -1 -10 -4 3 -21 -6 -37 -21 -15 -15 -50 -38 -76 -52 -26 -13 -50
-27 -51 -32 -2 -4 -7 -5 -12 -2 -4 3 -29 -4 -54 -15 -25 -10 -46 -16 -46 -12
0 4 -4 1 -9 -6 -5 -9 -17 -11 -34 -7 -15 4 -24 11 -21 16 3 5 -2 6 -12 2 -14
-5 -13 -8 6 -18 21 -11 21 -12 -16 -18 -56 -10 -66 -9 -58 6 6 10 4 10 -7 0
-19 -18 -229 -18 -229 0 0 9 -3 8 -9 -2 -7 -11 -15 -11 -41 -2 -18 6 -55 11
-82 11 -35 0 -47 3 -42 12 5 8 2 9 -9 5 -10 -4 -32 -4 -49 0 -28 5 -29 7 -13
14 13 5 5 6 -20 3 -24 -3 -35 -2 -28 3 8 6 -2 9 -28 10 -21 1 -47 9 -55 18 -9
9 -23 14 -31 11 -9 -4 -11 -2 -7 6 5 8 -1 9 -20 4 -18 -4 -25 -3 -21 4 4 6 -6
10 -25 10 -17 0 -29 4 -26 9 3 4 -14 14 -37 21 -67 20 -157 62 -151 72 3 4 -1
8 -9 8 -7 0 -32 9 -55 20 -22 11 -47 20 -53 20 -7 0 -10 3 -6 6 9 9 -21 36
-33 29 -5 -3 -20 1 -34 10 -14 10 -27 12 -30 6 -3 -5 29 -28 71 -51 43 -22 85
-45 93 -50 8 -6 24 -14 35 -19 11 -5 63 -29 115 -54 52 -24 113 -50 135 -57
22 -7 54 -18 70 -26 26 -12 73 -24 240 -65 68 -16 386 -23 457 -10 105 20 233
74 322 136 49 33 180 167 210 214 44 69 73 127 91 183 9 29 20 60 25 69 5 9
14 61 21 116 21 180 -9 415 -83 638 -41 124 -145 333 -203 407 -11 14 -27 36
-35 48 -82 123 -255 286 -425 400 -91 61 -279 157 -324 166 -38 8 -42 13 -74
94 -27 69 -69 148 -102 193 -28 39 -124 136 -173 175 -107 84 -291 153 -448
168 -60 5 -71 4 -86 -12z m-815 -968 c4 -10 1 -13 -8 -9 -8 3 -12 9 -9 14 7
12 11 11 17 -5z m87 -2262 c0 -2 -9 0 -20 6 -11 6 -20 13 -20 16 0 2 9 0 20
-6 11 -6 20 -13 20 -16z"/>
<path d="M3160 4866 c0 -2 6 -9 14 -15 11 -9 16 -9 22 0 4 8 3 9 -4 5 -7 -4
-12 -2 -12 3 0 6 -4 11 -10 11 -5 0 -10 -2 -10 -4z"/>
<path d="M2988 4833 c7 -3 16 -2 19 1 4 3 -2 6 -13 5 -11 0 -14 -3 -6 -6z"/>
<path d="M3465 4550 c-3 -6 1 -7 9 -4 18 7 21 14 7 14 -6 0 -13 -4 -16 -10z"/>
<path d="M3505 4529 c-4 -6 -5 -12 -2 -15 2 -3 7 2 10 11 7 17 1 20 -8 4z"/>
<path d="M2609 4423 c-13 -16 -12 -17 4 -4 16 13 21 21 13 21 -2 0 -10 -8 -17
-17z"/>
<path d="M3578 4353 c7 -3 16 -2 19 1 4 3 -2 6 -13 5 -11 0 -14 -3 -6 -6z"/>
<path d="M3578 4333 c7 -3 16 -2 19 1 4 3 -2 6 -13 5 -11 0 -14 -3 -6 -6z"/>
<path d="M3625 4310 c-3 -5 -1 -10 4 -10 6 0 11 5 11 10 0 6 -2 10 -4 10 -3 0
-8 -4 -11 -10z"/>
<path d="M2267 4299 c7 -7 15 -10 18 -7 3 3 -2 9 -12 12 -14 6 -15 5 -6 -5z"/>
<path d="M2288 4203 c6 -2 18 -2 25 0 6 3 1 5 -13 5 -14 0 -19 -2 -12 -5z"/>
<path d="M2140 4090 c-9 -6 -10 -10 -3 -10 6 0 15 5 18 10 8 12 4 12 -15 0z"/>
<path d="M2050 4050 c8 -5 20 -10 25 -10 6 0 3 5 -5 10 -8 5 -19 10 -25 10 -5
0 -3 -5 5 -10z"/>
<path d="M1910 4040 c-9 -6 -10 -10 -3 -10 6 0 15 5 18 10 8 12 4 12 -15 0z"/>
<path d="M4080 4036 c0 -2 7 -7 16 -10 8 -3 12 -2 9 4 -6 10 -25 14 -25 6z"/>
<path d="M1662 3666 c7 -8 15 -12 17 -11 5 6 -10 25 -20 25 -5 0 -4 -6 3 -14z"/>
<path d="M4537 3457 c-3 -8 -2 -20 3 -26 5 -9 8 -4 8 13 0 29 -3 32 -11 13z"/>
<path d="M1498 3317 c-3 -19 -2 -25 4 -19 6 6 8 18 6 28 -3 14 -5 12 -10 -9z"/>
<path d="M1302 3060 c0 -14 2 -19 5 -12 2 6 2 18 0 25 -3 6 -5 1 -5 -13z"/>
<path d="M3410 2799 c-19 -5 -55 -8 -80 -8 -25 1 -56 -3 -71 -9 -16 -6 -31 -7
-42 -1 -12 7 -15 6 -12 -4 3 -7 -10 -28 -30 -45 -19 -18 -35 -37 -35 -43 0 -6
-4 -8 -8 -5 -5 3 -9 -28 -9 -69 -1 -50 2 -73 9 -69 6 4 8 1 6 -7 -5 -13 34
-76 55 -90 5 -4 6 -12 2 -19 -5 -9 -4 -11 3 -6 12 7 16 -4 13 -34 -2 -13 -1
-13 9 0 9 13 15 10 40 -17 16 -18 34 -33 40 -33 5 0 10 -5 10 -12 0 -6 3 -9 6
-5 3 3 16 -4 29 -15 33 -29 116 -69 128 -61 5 3 7 1 4 -4 -6 -9 6 -16 48 -28
80 -22 112 -28 183 -29 50 -1 77 1 70 7 -9 6 -6 7 9 4 12 -3 23 -1 25 4 2 5
12 11 23 13 27 6 75 25 75 30 0 2 -10 2 -22 -1 -22 -4 -23 -4 -4 11 11 9 23
16 28 16 4 0 7 3 6 8 -4 14 23 53 33 46 6 -3 7 5 3 22 -5 20 -4 25 6 19 9 -5
10 -2 5 15 -4 12 -3 20 2 17 4 -3 7 12 5 34 -3 23 1 46 9 57 13 15 12 16 -4 3
-16 -13 -19 -12 -24 7 -3 12 -9 22 -14 22 -5 0 -6 6 -3 13 6 16 -122 147 -143
147 -7 0 -16 7 -19 15 -4 8 -10 12 -15 9 -5 -3 -9 -1 -9 4 0 5 -8 12 -17 16
-106 35 -133 43 -139 37 -4 -3 -4 0 0 7 7 11 -20 17 -71 15 -7 -1 -13 4 -13 9
0 6 -7 7 -16 4 -8 -3 -23 -2 -32 2 -9 5 -33 5 -52 1z m210 -62 c114 -39 170
-70 231 -128 92 -88 112 -177 61 -279 -18 -37 -41 -65 -70 -85 -42 -29 -48
-30 -150 -29 -97 0 -114 3 -187 33 -139 57 -261 151 -323 248 -41 65 -49 112
-28 168 15 38 26 48 79 75 62 31 63 32 187 27 100 -3 140 -9 200 -30z"/>
<path d="M3328 2743 c7 -3 16 -2 19 1 4 3 -2 6 -13 5 -11 0 -14 -3 -6 -6z"/>
<path d="M3638 2693 c7 -3 16 -2 19 1 4 3 -2 6 -13 5 -11 0 -14 -3 -6 -6z"/>
<path d="M3245 2463 c11 -12 18 -14 26 -6 8 8 7 13 -2 18 -8 5 -10 4 -5 -3 9
-15 -6 -16 -22 -2 -7 5 -5 2 3 -7z"/>
<path d="M3360 2356 c0 -2 7 -7 16 -10 8 -3 12 -2 9 4 -6 10 -25 14 -25 6z"/>
<path d="M3860 2321 c0 -5 5 -13 10 -16 6 -3 10 -2 10 4 0 5 -4 13 -10 16 -5
3 -10 2 -10 -4z"/>
<path d="M3420 2316 c0 -2 8 -10 18 -17 15 -13 16 -12 3 4 -13 16 -21 21 -21
13z"/>
<path d="M3457 2309 c7 -7 15 -10 18 -7 3 3 -2 9 -12 12 -14 6 -15 5 -6 -5z"/>
<path d="M3620 2790 c-8 -5 -11 -12 -8 -16 4 -3 14 1 23 10 18 17 9 21 -15 6z"/>
<path d="M3900 2599 c0 -5 5 -7 10 -4 6 3 10 8 10 11 0 2 -4 4 -10 4 -5 0 -10
-5 -10 -11z"/>
<path d="M3970 2556 c0 -2 7 -9 15 -16 13 -11 14 -10 9 4 -5 14 -24 23 -24 12z"/>
<path d="M1390 2466 c0 -8 4 -17 9 -20 5 -4 7 3 4 14 -6 23 -13 26 -13 6z"/>
<path d="M2455 2470 c-3 -6 1 -7 9 -4 18 7 21 14 7 14 -6 0 -13 -4 -16 -10z"/>
<path d="M3150 2461 c0 -6 4 -13 10 -16 6 -3 7 1 4 9 -7 18 -14 21 -14 7z"/>
<path d="M2088 2433 c6 -2 18 -2 25 0 6 3 1 5 -13 5 -14 0 -19 -2 -12 -5z"/>
<path d="M2356 2362 c-3 -5 1 -9 9 -9 8 0 12 4 9 9 -3 4 -7 8 -9 8 -2 0 -6 -4
-9 -8z"/>
<path d="M1978 2263 c7 -3 16 -2 19 1 4 3 -2 6 -13 5 -11 0 -14 -3 -6 -6z"/>
<path d="M2380 2251 c0 -6 4 -13 10 -16 6 -3 7 1 4 9 -7 18 -14 21 -14 7z"/>
<path d="M2770 2181 c0 -6 4 -13 10 -16 6 -3 7 1 4 9 -7 18 -14 21 -14 7z"/>
<path d="M4540 2181 c0 -6 4 -13 10 -16 6 -3 7 1 4 9 -7 18 -14 21 -14 7z"/>
<path d="M2647 2149 c7 -7 15 -10 18 -7 3 3 -2 9 -12 12 -14 6 -15 5 -6 -5z"/>
<path d="M2749 2143 c-13 -16 -12 -17 4 -4 16 13 21 21 13 21 -2 0 -10 -8 -17
-17z"/>
<path d="M3067 2149 c7 -7 15 -10 18 -7 3 3 -2 9 -12 12 -14 6 -15 5 -6 -5z"/>
<path d="M4330 2150 c-9 -6 -10 -10 -3 -10 6 0 15 5 18 10 8 12 4 12 -15 0z"/>
<path d="M2920 2106 c0 -2 7 -7 16 -10 8 -3 12 -2 9 4 -6 10 -25 14 -25 6z"/>
<path d="M4413 2097 c0 -8 6 -14 13 -14 7 0 10 6 7 14 -3 7 -8 13 -12 13 -4 0
-8 -6 -8 -13z"/>
<path d="M2696 2077 c3 -10 9 -15 12 -12 3 3 0 11 -7 18 -10 9 -11 8 -5 -6z"/>
<path d="M2190 2060 c6 -11 13 -20 16 -20 2 0 0 9 -6 20 -6 11 -13 20 -16 20
-2 0 0 -9 6 -20z"/>
<path d="M2656 2055 c-11 -8 -15 -15 -9 -15 6 0 16 7 23 15 16 19 11 19 -14 0z"/>
<path d="M2266 2044 c-5 -14 -4 -15 9 -4 17 14 19 20 6 20 -5 0 -12 -7 -15
-16z"/>
<path d="M4235 2050 c-3 -5 -1 -10 4 -10 6 0 11 5 11 10 0 6 -2 10 -4 10 -3 0
-8 -4 -11 -10z"/>
<path d="M4342 2037 c-8 -10 -6 -13 7 -13 10 0 18 6 18 13 0 7 -4 13 -7 13 -4
0 -12 -6 -18 -13z"/>
<path d="M2275 2021 c-3 -5 -2 -12 3 -15 5 -3 9 1 9 9 0 17 -3 19 -12 6z"/>
<path d="M1575 1989 c-4 -6 -4 -13 -1 -16 3 -4 6 -1 6 6 0 7 5 9 12 5 7 -4 8
-3 4 4 -9 15 -13 15 -21 1z"/>
<path d="M2545 1850 c-3 -6 1 -7 9 -4 18 7 21 14 7 14 -6 0 -13 -4 -16 -10z"/>
<path d="M1847 1821 c-4 -17 -3 -21 5 -13 5 5 8 16 6 23 -3 8 -7 3 -11 -10z"/>
<path d="M1940 1805 c0 -5 5 -17 10 -25 5 -8 10 -10 10 -5 0 6 -5 17 -10 25
-5 8 -10 11 -10 5z"/>
<path d="M1596 1781 c-4 -5 -2 -12 4 -16 6 -4 7 -11 4 -17 -4 -6 -2 -8 4 -5
10 7 11 32 0 42 -3 4 -9 2 -12 -4z"/>
<path d="M2886 1768 c3 -5 10 -6 15 -3 13 9 11 12 -6 12 -8 0 -12 -4 -9 -9z"/>
<path d="M2929 1771 c7 -5 11 -14 7 -20 -5 -7 -1 -9 9 -5 12 5 13 9 4 20 -6 8
-17 14 -23 14 -6 0 -5 -4 3 -9z"/>
<path d="M1983 1745 c0 -8 4 -12 9 -9 5 3 6 10 3 15 -9 13 -12 11 -12 -6z"/>
<path d="M2160 1750 c-9 -6 -10 -10 -3 -10 6 0 15 5 18 10 8 12 4 12 -15 0z"/>
<path d="M2805 1750 c-3 -6 1 -7 9 -4 18 7 21 14 7 14 -6 0 -13 -4 -16 -10z"/>
<path d="M1637 1713 c-3 -5 4 -15 16 -23 21 -12 21 -12 7 6 -8 10 -15 20 -16
22 -1 2 -4 -1 -7 -5z"/>
<path d="M1806 1637 c3 -10 9 -15 12 -12 3 3 0 11 -7 18 -10 9 -11 8 -5 -6z"/>
<path d="M1684 1626 c1 -8 5 -18 8 -22 4 -3 5 1 4 10 -1 8 -5 18 -8 22 -4 3
-5 -1 -4 -10z"/>
<path d="M1713 1619 c-2 -23 3 -25 10 -4 4 8 3 16 -1 19 -4 3 -9 -4 -9 -15z"/>
<path d="M1944 1508 c-4 -7 -4 -10 1 -6 4 4 15 2 24 -5 14 -11 14 -10 2 6 -16
20 -18 21 -27 5z"/>
<path d="M1855 1461 c-3 -5 -2 -12 3 -15 5 -3 9 1 9 9 0 17 -3 19 -12 6z"/>
<path d="M2721 1426 c-15 -17 -1 -28 19 -15 11 6 12 9 2 9 -7 0 -10 5 -7 10 9
15 -1 12 -14 -4z"/>
<path d="M1950 1395 c-7 -9 -10 -18 -6 -22 3 -3 6 -1 6 6 0 9 6 9 23 1 20 -10
20 -10 5 3 -10 8 -15 17 -11 20 3 4 4 7 1 7 -3 0 -11 -7 -18 -15z"/>
<path d="M2774 1369 c-4 -7 -3 -9 4 -5 5 3 13 0 15 -6 4 -9 6 -10 6 -1 1 17
-16 25 -25 12z"/>
<path d="M2724 1306 c0 -14 4 -22 8 -20 5 3 6 10 3 15 -4 5 -1 9 5 9 6 0 8 5
5 10 -11 18 -21 11 -21 -14z"/>
<path d="M2756 1292 c-3 -4 4 -9 15 -9 23 -2 25 3 4 10 -8 4 -16 3 -19 -1z"/>
<path d="M2163 1235 c0 -8 4 -12 9 -9 5 3 6 10 3 15 -9 13 -12 11 -12 -6z"/>
<path d="M2348 1238 c5 -5 16 -8 23 -6 8 3 3 7 -10 11 -17 4 -21 3 -13 -5z"/>
<path d="M2396 1132 c-3 -4 4 -9 15 -9 23 -2 25 3 4 10 -8 4 -16 3 -19 -1z"/>
<path d="M3036 1122 c-3 -5 1 -9 9 -9 8 0 12 4 9 9 -3 4 -7 8 -9 8 -2 0 -6 -4
-9 -8z"/>
</g>
</svg>
